<?xml version="1.0" encoding="UTF-8" standalone="no"?>
<!-- Generator: Adobe Illustrator 16.0.0, SVG Export Plug-In . SVG Version: 6.00 Build 0)  -->

<svg
   xmlns:dc="http://purl.org/dc/elements/1.1/"
   xmlns:cc="http://creativecommons.org/ns#"
   xmlns:rdf="http://www.w3.org/1999/02/22-rdf-syntax-ns#"
   xmlns:svg="http://www.w3.org/2000/svg"
   xmlns="http://www.w3.org/2000/svg"
   xmlns:sodipodi="http://sodipodi.sourceforge.net/DTD/sodipodi-0.dtd"
   xmlns:inkscape="http://www.inkscape.org/namespaces/inkscape"
   version="1.1"
   x="0px"
   y="0px"
   width="513.40344"
   height="598.96704"
   viewBox="0 0 513.40344 598.96704"
   xml:space="preserve"
   id="svg2"
   inkscape:version="0.91 r13725"
   sodipodi:docname="umajlka-bottom-small.svg"><metadata
     id="metadata23"><rdf:RDF><cc:Work
         rdf:about=""><dc:format>image/svg+xml</dc:format><dc:type
           rdf:resource="http://purl.org/dc/dcmitype/StillImage" /><dc:title></dc:title></cc:Work></rdf:RDF></metadata><defs
     id="defs21" /><sodipodi:namedview
     pagecolor="#ffffff"
     bordercolor="#666666"
     borderopacity="1"
     objecttolerance="10000"
     gridtolerance="10"
     guidetolerance="10"
     inkscape:pageopacity="0"
     inkscape:pageshadow="2"
     inkscape:window-width="1920"
     inkscape:window-height="1057"
     id="namedview19"
     showgrid="false"
     fit-margin-top="0"
     fit-margin-left="0"
     fit-margin-right="0"
     fit-margin-bottom="0"
     inkscape:zoom="0.4609375"
     inkscape:cx="806.82074"
     inkscape:cy="284.60603"
     inkscape:window-x="-8"
     inkscape:window-y="-8"
     inkscape:window-maximized="1"
     inkscape:current-layer="svg2" /><g
     id="Guides_For_Artboard"
     transform="translate(-11,-10.996994)" /><g
     id="Artwork"
     transform="translate(-11,-10.996994)" /><g
     id="Layer_3"
     transform="translate(-11,-10.996994)"><g
       id="g7"><circle
         style="fill:#664b3a"
         cx="256"
         cy="255.99699"
         r="245"
         id="circle9" /><g
         id="g11"><path
           style="fill:#ffffff"
           d="m 260.364,128.951 0,0 0.002,0 c 33.825,-0.027 67.872,2.018 68.407,6.136 0.055,0.417 0.094,0.838 0.145,1.256 -0.246,-11.851 -7.213,-22.061 -17.291,-27.036 -3.84,-10.467 -13.973,-17.944 -25.869,-17.944 -0.439,0 -0.875,0.013 -1.309,0.033 -5.04,-5.613 -12.385,-9.153 -20.566,-9.153 -8.329,0 -15.787,3.669 -20.834,9.458 -1.41,-0.221 -2.855,-0.338 -4.329,-0.338 -11.199,0 -20.829,6.63 -25.125,16.139 -12.447,3.893 -21.506,15.303 -21.783,28.85 0.051,-0.421 0.091,-0.845 0.146,-1.265 0.534,-4.119 34.581,-6.164 68.406,-6.136 z"
           id="path13"
           inkscape:connector-curvature="0" /><path
           style="fill:#eaebec"
           d="m 315.31,403.276 c 0,0 -0.003,0 -0.004,0 -1.584,-13.299 -3.691,-22.265 -5.646,-35.608 -1.955,-13.343 -5.858,-53.009 1.822,-84.215 10.04,-40.781 19.291,-74.395 18.874,-115.943 -0.104,-10.354 -0.201,-20.896 -1.438,-31.167 -0.051,-0.418 -0.09,-0.839 -0.145,-1.256 -0.535,-4.119 -34.582,-6.164 -68.407,-6.136 l -10e-4,0 -0.001,0 c -33.825,-0.027 -67.872,2.018 -68.407,6.136 -0.055,0.42 -0.095,0.844 -0.146,1.265 -1.236,10.267 -1.333,20.807 -1.438,31.158 -0.417,41.549 8.834,75.162 18.874,115.943 7.681,31.207 3.776,70.872 1.822,84.215 -1.954,13.343 -4.062,22.309 -5.646,35.608 -0.001,0 -0.003,0 -0.003,0 -0.308,3.637 -0.678,9.045 -0.68,9.352 -0.001,0.174 0.003,1.122 0.011,1.415 0,0.004 0.001,0.013 0.001,0.013 0.023,0.946 0.078,1.84 0.173,2.663 1.439,12.483 31.437,14.032 53.447,14.032 0.453,0 0.879,-0.005 1.324,-0.006 0.224,0 0.446,10e-4 0.666,0.003 l 10e-4,0 10e-4,0 c 0.22,-10e-4 0.442,-0.002 0.666,-0.003 0.445,10e-4 0.871,0.006 1.324,0.006 22.011,0 52.008,-1.549 53.447,-14.032 0.095,-0.822 0.149,-1.717 0.173,-2.663 0,0 0.001,-0.009 0.001,-0.013 0.008,-0.293 0.012,-1.241 0.011,-1.415 0,-0.307 -0.37,-5.715 -0.676,-9.352 z m -7.874,6.03 c 0,0.004 0,0.012 0,0.012 -0.021,0.823 -0.066,1.602 -0.147,2.317 -1.218,10.866 -26.591,12.214 -45.208,12.214 -0.384,0 -0.744,-0.004 -1.12,-0.005 -0.116,0 -0.23,0.001 -0.346,0.002 -0.114,-10e-4 -0.229,-10e-4 -0.345,-0.002 -0.376,0.001 -0.737,0.005 -1.12,0.005 -18.618,0 -43.991,-1.348 -45.209,-12.214 -0.08,-0.715 -0.126,-1.494 -0.146,-2.317 0,0 -10e-4,-0.008 -10e-4,-0.012 -0.007,-0.255 -0.009,-1.08 -0.009,-1.231 0.002,-0.267 0.314,-4.975 0.575,-8.141 0,0 10e-4,0 0.002,0 1.34,-11.576 4.095,-19.38 5.747,-30.996 1.653,-11.615 6.085,-47.362 -0.412,-74.526 -4.89,-20.44 -13.796,-56.629 -17.099,-86.754 -2.432,-22.191 -2.405,-44.142 -1.907,-48.079 0.449,-3.559 31.481,-5.338 59.924,-5.34 28.442,0.002 59.476,1.782 59.925,5.34 0.498,3.938 0.252,28.476 -2.181,50.667 -3.302,30.125 -11.936,63.726 -16.825,84.167 -6.497,27.164 -2.066,62.911 -0.412,74.526 1.652,11.615 4.406,19.419 5.746,30.996 0.002,0 0.004,0 0.004,0 0.26,3.166 0.572,7.874 0.574,8.141 -0.001,0.15 -0.003,0.975 -0.01,1.23 z"
           id="path15"
           inkscape:connector-curvature="0" /><path
           style="fill:#e6a52e"
           d="m 306.867,399.935 c -1.34,-11.576 -4.094,-19.38 -5.746,-30.996 -1.654,-11.615 -6.085,-47.362 0.412,-74.526 4.89,-20.44 13.523,-54.042 16.825,-84.167 2.433,-22.191 2.679,-46.729 2.181,-50.667 -0.449,-3.559 -31.482,-5.338 -59.925,-5.34 -28.442,0.002 -59.475,1.782 -59.924,5.34 -0.498,3.938 -0.524,25.888 1.907,48.079 3.303,30.125 12.209,66.314 17.099,86.754 6.497,27.164 2.065,62.911 0.412,74.526 -1.652,11.615 -4.407,19.419 -5.747,30.996 -10e-4,0 -0.002,0 -0.002,0 -0.261,3.166 -0.573,7.874 -0.575,8.141 0,0.151 0.002,0.976 0.009,1.231 0,0.004 0.001,0.012 0.001,0.012 0.021,0.823 0.066,1.602 0.146,2.317 1.218,10.866 26.591,12.214 45.209,12.214 0.383,0 0.744,-0.004 1.12,-0.005 0.115,0 0.23,0.001 0.345,0.002 0.115,-10e-4 0.229,-10e-4 0.346,-0.002 0.376,0.001 0.736,0.005 1.12,0.005 18.617,0 43.99,-1.348 45.208,-12.214 0.081,-0.715 0.126,-1.494 0.147,-2.317 0,0 0,-0.008 0,-0.012 0.008,-0.255 0.01,-1.08 0.01,-1.231 -0.002,-0.267 -0.314,-4.975 -0.574,-8.141 0,10e-4 -0.002,10e-4 -0.004,10e-4 z"
           id="path17"
           inkscape:connector-curvature="0" /></g></g></g><text
     xml:space="preserve"
     style="font-style:normal;font-weight:normal;font-size:6.63263893px;line-height:125%;font-family:sans-serif;letter-spacing:0px;word-spacing:0px;fill:#e6a52e;fill-opacity:1;stroke:none;stroke-width:1px;stroke-linecap:butt;stroke-linejoin:miter;stroke-opacity:1"
     x="1.3445288"
     y="561.79907"
     id="text3351"
     sodipodi:linespacing="125%"
     transform="scale(0.97113212,1.029726)"><tspan
       sodipodi:role="line"
       id="tspan3353"
       x="1.3445288"
       y="561.79907"
       style="font-style:normal;font-variant:normal;font-weight:normal;font-stretch:normal;font-size:103.05870056px;line-height:1000%;font-family:'Poor Richard';-inkscape-font-specification:'Poor Richard';fill:#e6a52e;fill-opacity:1">Pub U Majkla</tspan></text>
</svg>